# xmcd CD database file
#
# Track frame offsets:
#	150
#	20387
#	41400
#	61455
#	79167
#	102040
#	121787
#	143307
#	165667
#	185500
#	203417
#	223605
#	242740
#	261632
#	279130
#	295275
#	313337
#
# Disc length: 4395 seconds
#
# Revision: 3
# Processed by: cddbd v1.4PL0 Copyright (c) Steve Scherf et al.
# Submitted via: CDex 1.50Beta3
#
DISCID=ed112911
DTITLE=Mariah Carey - #1's
DYEAR=1900
DGENRE=R&B
TTITLE0=Vision Of Love
TTITLE1=Love Takes Time
TTITLE2=Someday
TTITLE3=Emotions
TTITLE4=I'll Be There
TTITLE5=Dreamlover
TTITLE6=Hero
TTITLE7=Fantasy
TTITLE8=One Sweet Day
TTITLE9=Always Me Baby
TTITLE10=Honey
TTITLE11=My All
TTITLE12=Sweetheart
TTITLE13=When You Believe
TTITLE14=Whenever You Call
TTITLE15=I Still Believe
TTITLE16=Without You
EXTD=
EXTT0=
EXTT1=
EXTT2=
EXTT3=
EXTT4=
EXTT5=
EXTT6=
EXTT7=
EXTT8=
EXTT9=
EXTT10=
EXTT11=
EXTT12=
EXTT13=
EXTT14=
EXTT15=
EXTT16=
PLAYORDER=
